<?xml version="1.0" encoding="utf-8"?>
<!-- Generator: Adobe Illustrator 25.0.1, SVG Export Plug-In . SVG Version: 6.00 Build 0)  -->
<svg version="1.0" id="katman_1" xmlns="http://www.w3.org/2000/svg" xmlns:xlink="http://www.w3.org/1999/xlink" x="0px" y="0px"
	 viewBox="0 0 560 400" style="enable-background:new 0 0 560 400;" xml:space="preserve">
<style type="text/css">
	.st0{fill:#E50B14;}
</style>
<g transform="matrix(1.03093 0 0 1.03093 73.8144 45.3093)">
	<path d="M394.7,106.4v3.2H209.9v-3.2H394.7z M209.9,193.6h184.8v-3.2H209.9V193.6z M210,161.9v8.9c0,7.8,3.8,11.7,11.7,11.7h2
		c7.9,0,11.9-3.9,11.9-11.9v-9.3c0-5.5-1.5-8.5-6.1-11.9l-8.9-6.4c-2.1-1.5-3.3-2.9-3.3-6.1v-8c0-3.3,1.5-4.8,4.8-4.8h1.3
		c3.3,0,4.8,1.5,4.8,4.8v5.7h7.1v-5.5c0-7.8-3.8-11.7-11.7-11.7h-1.8c-7.9,0-11.9,3.9-11.9,11.9v7.7c0,5.2,1.4,8.5,6.1,11.9l8.9,6.5
		c2.1,1.5,3.2,2.9,3.2,6.1v9.6c0,3.3-1.5,4.8-4.8,4.8H222c-3.3,0-4.8-1.5-4.8-4.8v-9.2H210z M254.1,181.9v-57.1h9.6V118h-26.5v6.8
		h9.6v57.1H254.1z M266.4,118.1v52.5c0,7.9,3.9,11.9,11.9,11.9h2.3c7.9,0,11.9-3.9,11.9-11.9v-52.5h-7.3V171c0,3.3-1.5,4.8-4.8,4.8
		h-1.7c-3.3,0-4.8-1.5-4.8-4.8v-52.9L266.4,118.1z M309.1,181.9h-12V118h12c9.6,0,14.1,4.6,14.1,14.1v35.6
		C323.3,177.4,318.7,181.9,309.1,181.9z M316,132.1c0-4.9-2.3-7.4-7.2-7.4h-4.4v50.5h4.4c4.9,0,7.2-2.5,7.2-7.4V132.1z M327.7,118.1
		V182h7.3v-63.9L327.7,118.1z M351.2,182.5c-7.9,0-11.9-3.9-11.9-11.9v-41.2c0-7.9,3.9-11.9,11.9-11.9h2.7c7.9,0,11.9,3.9,11.9,11.9
		v41.2c0,7.9-3.9,11.9-11.9,11.9H351.2z M351.5,175.8h2.2c3.3,0,4.8-1.5,4.8-4.8v-42c0-3.3-1.5-4.8-4.8-4.8h-2.2
		c-3.3,0-4.8,1.6-4.8,4.8v42C346.7,174.3,348.2,175.8,351.5,175.8z M369,161.9v8.9c0,7.8,3.8,11.7,11.7,11.7h2
		c7.9,0,11.9-3.9,11.9-11.9v-9.3c0-5.5-1.5-8.5-6.1-11.9l-8.9-6.4c-2.1-1.5-3.3-2.9-3.3-6.1v-8c0-3.3,1.5-4.8,4.8-4.8h1.3
		c3.3,0,4.8,1.5,4.8,4.8v5.7h7.1v-5.5c0-7.8-3.8-11.7-11.7-11.7h-1.8c-7.9,0-11.9,3.9-11.9,11.9v7.7c0,5.2,1.4,8.5,6.1,11.9l8.9,6.5
		c2.1,1.5,3.2,2.9,3.2,6.1v9.6c0,3.3-1.5,4.8-4.8,4.8H381c-3.3,0-4.8-1.5-4.8-4.8v-9.2H369z"/>
	<path class="st0" d="M5.3,106.4v87.3H199v-87.3L5.3,106.4z M169.5,129.7h-10.3v14.4h10.3v11.7h-10.3v14.6h10.3v11.5h-21.8V124
		l-9.2,57.9h-13.4c0,0-6.9-41-6.9-41.1c1.1,6.6-3.1,13.5-6.7,16.3l7.3,24.8h-11.3l-5.5-21.1l-2.7,0.4v20.7H77.5l-1.3-9.8h-9
		l-1.3,9.8H43.5v-30.8l-5.2,30.8h-6.1L27,151.1v30.8H15.4V118H30l5.1,33l5.3-33H55v58.7l8.8-58.7h15.3l8.5,56.7V118h11.7
		c10.5,0,15.3,7.7,16.7,10.4l-1.3-10.4h11.7l5.3,38.9L137,118h32.4v11.7L169.5,129.7z M192.7,181.9h-21.2v-63.8h11.4v52.4h9.8V181.9
		z M106.9,139.6c0,5.2-2.3,8.4-5,9.7c-0.9,0.4-1.8,0.6-2.7,0.6v-20.5h0.1C100.2,129.4,106.9,129.7,106.9,139.6z M71.6,134.6
		l3.3,27.3h-6.5L71.6,134.6z"/>
</g>
</svg>
